<svg xmlns="http://www.w3.org/2000/svg" viewBox="0 0 200 170" role="img" aria-label="Barème de l'impôt en escalier">
  <ellipse cx="100" cy="158" rx="84" ry="8" fill="#000" opacity=".12"/>
  <rect x="14" y="20" width="172" height="130" rx="14" fill="#fff"/>
  <g font-family="Figtree,Arial,sans-serif" font-weight="800" font-size="9" fill="#0B5E42" text-anchor="middle">
    <rect x="26" y="128" width="16" height="8" rx="2" fill="#CFDDD7"/><text x="34" y="122">0%</text>
    <rect x="45" y="112" width="16" height="24" rx="2" fill="#9ED9BF"/><text x="53" y="106">15</text>
    <rect x="64" y="98" width="16" height="38" rx="2" fill="#6CC7A0"/><text x="72" y="92">25</text>
    <rect x="83" y="88" width="16" height="48" rx="2" fill="#3DB482"/><text x="91" y="82">30</text>
    <rect x="102" y="80" width="16" height="56" rx="2" fill="#1E9C6A"/><text x="110" y="74">33</text>
    <rect x="121" y="72" width="16" height="64" rx="2" fill="#11885A"/><text x="129" y="66">36</text>
    <rect x="140" y="66" width="16" height="70" rx="2" fill="#0B7A53"/><text x="148" y="60">38</text>
    <rect x="159" y="58" width="16" height="78" rx="2" fill="#085C3F"/><text x="167" y="52">40</text>
  </g>
  <text x="26" y="40" font-family="Figtree,Arial,sans-serif" font-size="11" font-weight="800" fill="#0F2A22">IRPP · 8 tranches</text>
  <path d="M26 136h150" stroke="#E1E8E5" stroke-width="2"/>
  <circle cx="176" cy="26" r="16" fill="#E8A33D"/><text x="176" y="31" text-anchor="middle" font-family="Figtree,Arial,sans-serif" font-size="14" font-weight="800" fill="#fff">%</text>
</svg>
